<svg xmlns="http://www.w3.org/2000/svg" xmlns:xlink="http://www.w3.org/1999/xlink" viewBox="0 0 280 250" preserveAspectRatio="xMidYMid" style="display: block; shape-rendering: auto; background: transparent;" width="280" height="250"><style type="text/css">
  .ld-text text {
    text-anchor: middle;
    dominant-baseline: middle;
    font-size: 62px;
    opacity: 0;
    user-select: none;
    pointer-events: none;
  }
</style>
<g style="transform-origin:140px 125px;transform:scale(1)" class="ld-text">
<g transform="translate(140,125)">
  <g transform="scale(0.7750) translate(0,0)"><g class="path" style="opacity: 1; transform-origin: -20.78px 0px; transform: matrix3d(0.91, 0, 0, 0, 0, 0.91, 0, 0, 0, 0, 0.91, 0, 0, 0, 0, 1); animation: 1s linear -0.44s infinite normal forwards running animate-xkqay6s4vbq; transform-box: view-box;"><path d="M17.03 6.13L17.03 6.13Q17.03 8.71 15.25 10.50Q13.48 12.30 10.90 12.30L10.90 12.30Q8.28 12.30 6.50 10.50Q4.73 8.71 4.73 6.13L4.73 6.13Q4.73 3.55 6.50 1.77Q8.28 0 10.90 0L10.90 0Q13.48 0 15.25 1.77Q17.03 3.55 17.03 6.13" style="fill: rgb(81, 136, 204);" transform="translate(-31.660,-6.150)"></path></g><g class="path" style="opacity: 1; transform-origin: 4.73px 0px; transform: matrix3d(0.91, 0, 0, 0, 0, 0.91, 0, 0, 0, 0, 0.91, 0, 0, 0, 0, 1); animation: 1s linear -0.22s infinite normal forwards running animate-xkqay6s4vbq; transform-box: view-box;"><path d="M42.54 6.13L42.54 6.13Q42.54 8.71 40.76 10.50Q38.98 12.30 36.41 12.30L36.41 12.30Q33.79 12.30 32.01 10.50Q30.23 8.71 30.23 6.13L30.23 6.13Q30.23 3.55 32.01 1.77Q33.79 0 36.41 0L36.41 0Q38.98 0 40.76 1.77Q42.54 3.55 42.54 6.13" style="fill: rgb(63, 72, 160);" transform="translate(-31.660,-6.150)"></path></g><g class="path" style="opacity: 1; transform-origin: 30.24px 0px; transform: matrix3d(0.91, 0, 0, 0, 0, 0.91, 0, 0, 0, 0, 0.91, 0, 0, 0, 0, 1); animation: 1s linear 0s infinite normal forwards running animate-xkqay6s4vbq; transform-box: view-box;"><path d="M68.05 6.13L68.05 6.13Q68.05 8.71 66.27 10.50Q64.49 12.30 61.91 12.30L61.91 12.30Q59.30 12.30 57.52 10.50Q55.74 8.71 55.74 6.13L55.74 6.13Q55.74 3.55 57.52 1.77Q59.30 0 61.91 0L61.91 0Q64.49 0 66.27 1.77Q68.05 3.55 68.05 6.13" style="fill: rgb(224, 255, 119);" transform="translate(-31.660,-6.150)"></path></g></g><text dy="0.35em" fill="#5188cc" font-family="Abyssinica SIL" font-size="62">...</text>
</g>
</g><style type="text/css">@keyframes animate-xkqay6s4vbq { 0.00% {transform: translate(0.00px,0.00px) rotate(0.00deg) scale(0.91, 0.91) skew(0deg, 0.00deg) ;opacity: 1.00;}4.00% {transform: translate(0.00px,0.00px) rotate(0.00deg) scale(0.91, 0.91) ;}8.00% {animation-timing-function: cubic-bezier(0.69,0.60,0.35,0.27);transform: translate(0.00px,0.00px) rotate(0.00deg) scale(0.91, 0.91) ;}14.00% {transform: translate(0.00px,0.00px) rotate(0.00deg) scale(0.93, 0.93) ;}18.00% {transform: translate(0.00px,0.00px) rotate(0.00deg) scale(0.94, 0.94) ;}22.00% {animation-timing-function: cubic-bezier(0.67,0.66,0.34,0.33);transform: translate(0.00px,0.00px) rotate(0.00deg) scale(0.96, 0.96) ;}26.00% {transform: translate(0.00px,0.00px) rotate(0.00deg) scale(0.97, 0.97) ;}30.00% {transform: translate(0.00px,0.00px) rotate(0.00deg) scale(0.99, 0.99) ;}34.00% {animation-timing-function: cubic-bezier(0.65,0.71,0.32,0.38);transform: translate(0.00px,0.00px) rotate(0.00deg) scale(1.01, 1.01) ;}40.00% {animation-timing-function: cubic-bezier(0.64,0.74,0.31,0.41);transform: translate(0.00px,0.00px) rotate(0.00deg) scale(1.02, 1.02) ;}46.00% {animation-timing-function: cubic-bezier(0.60,0.91,0.23,0.63);transform: translate(0.00px,0.00px) rotate(0.00deg) scale(1.03, 1.03) ;}50.00% {transform: translate(0.00px,0.00px) rotate(0.00deg) scale(1.03, 1.03) ;}54.00% {transform: translate(0.00px,0.00px) rotate(0.00deg) scale(1.03, 1.03) ;}58.00% {animation-timing-function: cubic-bezier(0.69,0.60,0.35,0.27);transform: translate(0.00px,0.00px) rotate(0.00deg) scale(1.03, 1.03) ;}64.00% {transform: translate(0.00px,0.00px) rotate(0.00deg) scale(1.01, 1.01) ;}68.00% {transform: translate(0.00px,0.00px) rotate(0.00deg) scale(1.00, 1.00) ;}72.00% {animation-timing-function: cubic-bezier(0.67,0.66,0.34,0.33);transform: translate(0.00px,0.00px) rotate(0.00deg) scale(0.98, 0.98) ;}76.00% {animation-timing-function: cubic-bezier(0.66,0.68,0.33,0.35);transform: translate(0.00px,0.00px) rotate(0.00deg) scale(0.97, 0.97) ;}82.00% {animation-timing-function: cubic-bezier(0.65,0.71,0.32,0.38);transform: translate(0.00px,0.00px) rotate(0.00deg) scale(0.94, 0.94) ;}88.00% {animation-timing-function: cubic-bezier(0.65,0.73,0.31,0.40);transform: translate(0.00px,0.00px) rotate(0.00deg) scale(0.92, 0.92) ;}94.00% {animation-timing-function: cubic-bezier(0.63,0.80,0.28,0.48);transform: translate(0.00px,0.00px) rotate(0.00deg) scale(0.91, 0.91) ;}100.00% {animation-timing-function: cubic-bezier(0.63,0.80,0.28,0.48);transform: translate(0.00px,0.00px) rotate(0.00deg) scale(0.91, 0.91) ;} }</style><!-- [ldio] generated by https://loading.io --></svg>