<svg width="943" height="1064" viewBox="0 0 943 1064" fill="none" xmlns="http://www.w3.org/2000/svg">
<path opacity="0.24" d="M548.863 70.5781L549.156 70.983L549.505 70.7299L549.306 70.3472L548.863 70.5781ZM330.019 253.028L330.382 253.372L330.385 253.369L330.019 253.028ZM207.769 225.196L207.414 224.845L207.411 224.847L207.769 225.196ZM512.64 1L513.084 0.769043L512.844 0.307373L512.392 0.566162L512.64 1ZM1215.69 70.5781L1215.98 70.9868L1216.33 70.7349L1216.13 70.3472L1215.69 70.5781ZM1004.39 243.75L1004.75 244.1L1004.75 244.096L1004.39 243.75ZM894.215 539.071L893.816 539.371L893.828 539.388L893.843 539.404L894.215 539.071ZM868.558 231.381L868.2 231.032L868.198 231.034L868.558 231.381ZM1179.47 1L1179.91 0.769043L1179.67 0.305298L1179.22 0.567261L1179.47 1ZM548.569 70.1732C448.949 142.335 375.971 203.173 329.654 252.686L330.385 253.369C376.636 203.926 449.553 143.132 549.156 70.983L548.569 70.1732ZM329.657 252.683C251.131 335.193 211.797 414.165 211.797 489.593H212.797C212.797 414.526 251.944 335.789 330.382 253.372L329.657 252.683ZM211.797 489.593C211.797 506.183 216.353 521.737 225.457 536.245L226.304 535.713C217.296 521.359 212.797 505.989 212.797 489.593H211.797ZM225.457 536.245C234.635 550.871 250.931 558.125 274.177 558.125V557.125C251.138 557.125 235.237 549.948 226.304 535.713L225.457 536.245ZM274.177 558.125C283.272 558.125 295.879 556.832 311.987 554.254L311.829 553.266C295.739 555.842 283.193 557.125 274.177 557.125V558.125ZM311.987 554.254C328.09 551.676 339.12 550.394 345.112 550.394V549.394C339.03 549.394 327.925 550.69 311.829 553.266L311.987 554.254ZM345.112 550.394C404.34 550.394 456.539 571.986 501.73 615.195L502.421 614.473C457.056 571.096 404.613 549.394 345.112 549.394V550.394ZM501.73 615.195C546.887 658.373 569.492 718.53 569.492 795.737H570.492C570.492 718.325 547.82 657.881 502.421 614.473L501.73 615.195ZM569.492 795.737C569.492 877.07 546.382 941.876 500.205 990.211L500.928 990.901C547.319 942.342 570.492 877.269 570.492 795.737H569.492ZM500.205 990.211C454.031 1038.54 391.789 1062.73 313.418 1062.73V1063.73C392.011 1063.73 454.533 1039.46 500.928 990.901L500.205 990.211ZM313.418 1062.73C225.014 1062.73 150.943 1030.06 91.17 964.707L90.4321 965.382C150.394 1030.94 224.733 1063.73 313.418 1063.73V1062.73ZM91.17 964.707C31.4109 899.37 1.49988 808.024 1.49988 690.597H0.499878C0.499878 808.191 30.4557 899.807 90.4321 965.382L91.17 964.707ZM1.49988 690.597C1.49988 521.699 70.3549 366.688 208.127 225.546L207.411 224.847C69.4897 366.142 0.499878 521.395 0.499878 690.597H1.49988ZM208.125 225.548C283.547 149.311 385.13 74.6054 512.889 1.43384L512.392 0.566162C384.581 73.7672 282.918 148.524 207.414 224.845L208.125 225.548ZM512.197 1.23083L548.419 70.809L549.306 70.3472L513.084 0.769043L512.197 1.23083ZM1215.4 70.1695C1121.81 136.148 1051.35 193.893 1004.03 243.405L1004.75 244.096C1052.01 194.652 1122.41 136.95 1215.98 70.9868L1215.4 70.1695ZM1004.03 243.401C920.48 328.999 878.623 410.034 878.623 486.501H879.623C879.623 410.41 921.278 329.613 1004.75 244.1L1004.03 243.401ZM878.623 486.501C878.623 508.224 883.672 525.862 893.816 539.371L894.615 538.771C884.635 525.479 879.623 508.071 879.623 486.501H878.623ZM893.843 539.404C905.02 551.897 920.257 558.125 939.493 558.125V557.125C920.494 557.125 905.546 550.985 894.588 538.738L893.843 539.404ZM939.493 558.125C947.583 558.125 959.941 556.832 976.547 554.254L976.394 553.266C959.796 555.842 947.502 557.125 939.493 557.125V558.125ZM976.547 554.254C993.153 551.676 1004.44 550.394 1010.43 550.394V549.394C1004.35 549.394 992.991 550.689 976.394 553.266L976.547 554.254ZM1010.43 550.394C1070.67 550.394 1123.37 571.987 1168.56 615.195L1169.25 614.473C1123.88 571.094 1070.93 549.394 1010.43 549.394V550.394ZM1168.56 615.195C1213.71 658.368 1236.32 720.583 1236.32 801.922H1237.32C1237.32 720.396 1214.65 657.886 1169.25 614.473L1168.56 615.195ZM1236.32 801.922C1236.32 871.902 1214.47 932.861 1170.78 984.823L1171.55 985.466C1215.4 933.318 1237.32 872.13 1237.32 801.922H1236.32ZM1170.78 984.823C1127.13 1036.74 1064.65 1062.73 983.262 1062.73V1063.73C1064.88 1063.73 1127.67 1037.66 1171.55 985.466L1170.78 984.823ZM983.262 1062.73C895.861 1062.73 821.534 1031.09 760.25 967.789L759.532 968.484C821.002 1031.97 895.588 1063.73 983.262 1063.73V1062.73ZM760.25 967.789C698.991 904.516 668.326 813.692 668.326 695.235H667.326C667.326 813.861 698.037 904.969 759.532 968.484L760.25 967.789ZM668.326 695.235C668.326 525.302 735.173 370.805 868.918 231.728L868.198 231.034C734.299 370.271 667.326 525.008 667.326 695.235H668.326ZM868.916 231.73C944.337 154.464 1047.93 77.6971 1179.72 1.43274L1179.22 0.567261C1047.38 76.8602 943.706 153.679 868.2 231.032L868.916 231.73ZM1179.02 1.23083L1215.25 70.809L1216.13 70.3472L1179.91 0.769043L1179.02 1.23083Z" fill="#A4ACC6"/>
</svg>