<svg width="0" height="0" class="hidden">
  <symbol fill="none" xmlns="http://www.w3.org/2000/svg" viewBox="0 0 18 16" id="arrow-left">
    <path d="M18 8H2.05112" stroke="#FAFAFA" stroke-width="2"></path>
    <path d="M7 3L2 8L7 13" stroke="#FAFAFA" stroke-width="2"></path>
  </symbol>
  <symbol fill="none" xmlns="http://www.w3.org/2000/svg" viewBox="0 0 170 28" id="logo_dark">
    <path d="M10.0575 24.6768L0.511719 26.1623L8.99719 20.1511L10.0575 24.6768Z" fill="#8BC53F"></path>
    <path d="M8.42969 17.6769L11.7528 24.2524L33.8132 17.6769L31.7522 13.3391L18.7167 8.83771L8.42969 17.6769Z" fill="#8BC53F"></path>
    <path d="M8.42969 17.6768L8.99558 20.1511L10.0559 24.6768L11.7528 24.2524L8.42969 17.6768Z" fill="#009345"></path>
    <path d="M21.582 28L25.8248 27.9396L24.6952 25.3739L21.582 28Z" fill="#009345"></path>
    <path d="M25.8249 27.9396L25.9163 27.7451L26.4608 26.5971L24.6953 25.3739" fill="#8BC53F"></path>
    <path d="M26.4609 2.05063L33.8146 0L35.7953 1.344L26.4609 2.05063Z" fill="#009345"></path>
    <path d="M35.7949 1.34399L37.7733 4.87863L36.7845 5.30305H34.0898L35.7949 1.34399Z" fill="#8BC53F"></path>
    <path d="M37.7733 4.87866L38.41 6.92929L34.0898 5.30308L37.7733 4.87866Z" fill="#009345"></path>
    <path d="M0.511719 26.1623L1.07982 24.6769L3.20635 24.2524L0.511719 26.1623Z" fill="#009345"></path>
    <path d="M3.20526 24.2524L0 23.016L1.07874 24.6768L3.20526 24.2524Z" fill="#8BC53F"></path>
    <path d="M18.7154 8.83766L31.7509 13.339L31.9307 11.7452L17.3125 7.9903L18.7154 8.83766Z" fill="#009345"></path>
    <path d="M26.4613 2.05063L17.1992 7.91957L17.3156 7.99031L31.9339 11.7453L35.7956 1.34399L26.4613 2.05063Z" fill="#8BC53F"></path>
    <path d="M17.0391 22.6763L20.6525 24.6768L33.8133 17.6768L17.0391 22.6763Z" fill="#009345"></path>
    <path d="M33.8134 17.6768L20.6445 24.6488L21.5811 28L33.8134 17.6768Z" fill="#8BC53F"></path>
    <path d="M53.2641 13.7841V15.0478H49.0214V17.4308H53.8838V18.6945H47.4961V10.3527H53.7526V11.6163H49.0214V13.7849L53.2641 13.7841Z" fill="#1B3070"></path>
    <path d="M62.6982 10.3527H64.3546L61.4831 18.6945H59.7191L56.8477 10.3527H58.5041L60.6011 17.1102L62.6982 10.3527Z" fill="#1B3070"></path>
    <path d="M73.893 13.7841V15.0478H69.6503V17.4308H74.5127V18.6945H68.125V10.3527H74.3815V11.6163H69.6503V13.7849L73.893 13.7841Z" fill="#1B3070"></path>
    <path d="M78.5359 10.3527H82.2658C83.29 10.3527 85.2802 10.4956 85.2802 12.6759C85.2802 13.9153 84.5537 14.5107 83.8868 14.7015V14.7251C85.0791 15.106 85.1026 16.1435 85.1152 16.8929C85.1269 18.0136 85.1152 18.2995 85.4246 18.6922H83.8507C83.6127 18.3106 83.5884 18.0254 83.5884 16.9526C83.5884 16.1899 83.5287 15.3794 81.8244 15.3794H80.0604V18.6922H78.5352L78.5359 10.3527ZM80.0612 14.1179H81.9681C82.7433 14.1179 83.7078 13.9986 83.7078 12.8668C83.7078 11.6628 82.6232 11.6156 82.0035 11.6156H80.0612V14.1179Z" fill="#1B3070"></path>
    <path d="M97.0496 15.8458C96.9303 17.1102 96.2627 18.9442 93.4391 18.9442C92.7958 18.9442 89.3047 18.8845 89.3047 14.6661C89.3047 11.2339 91.2831 10.1028 93.3559 10.1028C96.2155 10.1028 96.8595 11.8543 96.931 13.0465H95.4175C95.3225 12.3546 94.9172 11.3665 93.3559 11.3665C91.4968 11.3665 90.9361 12.88 90.9361 14.6079C90.9361 16.5613 92.0082 17.6827 93.5106 17.6827C94.8929 17.6827 95.489 16.7418 95.5362 15.8473H97.0496V15.8458Z" fill="#1B3070"></path>
    <path d="M104.935 10.1021C105.661 10.1021 109.022 10.1972 109.022 14.5224C109.022 18.8477 105.661 18.9427 104.935 18.9427C104.208 18.9427 100.848 18.8477 100.848 14.5224C100.848 10.1972 104.208 10.1021 104.935 10.1021ZM104.935 17.6813C106.997 17.6813 107.389 15.8104 107.389 14.5232C107.389 13.2359 106.997 11.3651 104.935 11.3651C102.872 11.3651 102.48 13.2359 102.48 14.5232C102.48 15.8104 102.874 17.6813 104.935 17.6813Z" fill="#1B3070"></path>
    <path d="M116.692 10.3527C120.113 10.3527 120.72 12.712 120.72 14.4996C120.72 18.2774 118.074 18.6937 116.394 18.6937H113.379V10.3527H116.692ZM114.905 17.4308H116.323C117.062 17.4308 119.088 17.3114 119.088 14.5239C119.088 11.9494 117.479 11.6163 116.561 11.6163H114.905V17.4308Z" fill="#1B3070"></path>
    <path d="M130.842 13.7841V15.0478H126.599V17.4308H131.462V18.6945H125.074V10.3527H131.33V11.6163H126.599V13.7849L130.842 13.7841Z" fill="#1B3070"></path>
    <path d="M146.659 18.6945H141.07V10.3527H142.595V17.4308H146.659V18.6945Z" fill="#1B3070"></path>
    <path d="M151.484 18.6945H149.852L152.998 10.3527H154.523L157.669 18.6945H156.037L155.43 16.943H152.095L151.484 18.6945ZM155.024 15.6793L153.76 11.973L152.496 15.6793H155.024Z" fill="#1B3070"></path>
    <path d="M165.373 10.3527C167.495 10.3527 167.911 11.5449 167.911 12.4615C167.911 13.3796 167.339 14.1061 166.529 14.2491V14.2727C167.22 14.392 168.257 14.868 168.257 16.3579C168.257 18.4668 166.457 18.693 165.206 18.693H161.441V10.3527H165.373ZM162.966 13.737H164.98C165.826 13.737 166.338 13.4747 166.338 12.7474C166.338 11.6399 165.266 11.6149 164.944 11.6149H162.965V13.737H162.966ZM162.966 17.4308H165.051C165.981 17.4308 166.684 17.2046 166.684 16.1914C166.684 15.0707 165.72 14.9985 165.087 14.9985H162.966V17.4308Z" fill="#1B3070"></path>
  </symbol>
  <symbol fill="none" xmlns="http://www.w3.org/2000/svg" viewBox="0 0 230 38" id="logo-light">
    <path d="M13.6464 33.4901L0.691406 35.5061L12.2074 27.3481L13.6464 33.4901Z" fill="#8BC53F"></path>
    <path d="M11.4414 23.9901L15.9514 32.9141L45.8904 23.9901L43.0934 18.1031L25.4024 11.9941L11.4414 23.9901Z" fill="#8BC53F"></path>
    <path d="M11.4414 23.9902L12.2094 27.3482L13.6484 33.4902L15.9514 32.9142L11.4414 23.9902Z" fill="#009345"></path>
    <path d="M29.2891 38L35.0471 37.918L33.5141 34.436L29.2891 38Z" fill="#009345"></path>
    <path d="M35.0486 37.918L35.1726 37.654L35.9116 36.096L33.5156 34.436" fill="#8BC53F"></path>
    <path d="M35.9102 2.783L45.8902 0L48.5782 1.824L35.9102 2.783Z" fill="#009345"></path>
    <path d="M48.5796 1.82422L51.2646 6.62122L49.9226 7.19722H46.2656L48.5796 1.82422Z" fill="#8BC53F"></path>
    <path d="M51.2646 6.62109L52.1286 9.40409L46.2656 7.19709L51.2646 6.62109Z" fill="#009345"></path>
    <path d="M0.691406 35.5061L1.46241 33.4901L4.34841 32.9141L0.691406 35.5061Z" fill="#009345"></path>
    <path d="M4.35 32.9138L0 31.2358L1.464 33.4898L4.35 32.9138Z" fill="#8BC53F"></path>
    <path d="M25.4001 11.9942L43.0911 18.1032L43.3351 15.9402L23.4961 10.8442L25.4001 11.9942Z" fill="#009345"></path>
    <path d="M35.9098 2.78322L23.3398 10.7482L23.4978 10.8442L43.3368 15.9402L48.5778 1.82422L35.9098 2.78322Z" fill="#8BC53F"></path>
    <path d="M23.125 30.7752L28.029 33.4902L45.89 23.9902L23.125 30.7752Z" fill="#009345"></path>
    <path d="M45.8915 23.9902L28.0195 33.4522L29.2905 38.0002L45.8915 23.9902Z" fill="#8BC53F"></path>
    <path d="M72.285 18.7068V20.4218H66.527V23.6558H73.126V25.3708H64.457V14.0498H72.948V15.7648H66.527V18.7078L72.285 18.7068Z" fill="#A4ACC6"></path>
    <path d="M85.0884 14.0498H87.3364L83.4394 25.3708H81.0454L77.1484 14.0498H79.3964L82.2424 23.2208L85.0884 14.0498Z" fill="#A4ACC6"></path>
    <path d="M100.285 18.7068V20.4218H94.527V23.6558H101.126V25.3708H92.457V14.0498H100.948V15.7648H94.527V18.7078L100.285 18.7068Z" fill="#A4ACC6"></path>
    <path d="M106.583 14.0498H111.645C113.035 14.0498 115.736 14.2438 115.736 17.2028C115.736 18.8848 114.75 19.6928 113.845 19.9518V19.9838C115.463 20.5008 115.495 21.9088 115.512 22.9258C115.528 24.4468 115.512 24.8348 115.932 25.3678H113.796C113.473 24.8498 113.44 24.4628 113.44 23.0068C113.44 21.9718 113.359 20.8718 111.046 20.8718H108.652V25.3678H106.582L106.583 14.0498ZM108.653 19.1598H111.241C112.293 19.1598 113.602 18.9978 113.602 17.4618C113.602 15.8278 112.13 15.7638 111.289 15.7638H108.653V19.1598Z" fill="#A4ACC6"></path>
    <path d="M131.71 21.5049C131.548 23.2209 130.642 25.7099 126.81 25.7099C125.937 25.7099 121.199 25.6289 121.199 19.9039C121.199 15.2459 123.884 13.7109 126.697 13.7109C130.578 13.7109 131.452 16.0879 131.549 17.7059H129.495C129.366 16.7669 128.816 15.4259 126.697 15.4259C124.174 15.4259 123.413 17.4799 123.413 19.8249C123.413 22.4759 124.868 23.9979 126.907 23.9979C128.783 23.9979 129.592 22.7209 129.656 21.5069H131.71V21.5049Z" fill="#A4ACC6"></path>
    <path d="M142.41 13.71C143.396 13.71 147.957 13.839 147.957 19.709C147.957 25.579 143.396 25.708 142.41 25.708C141.424 25.708 136.863 25.579 136.863 19.709C136.863 13.839 141.423 13.71 142.41 13.71ZM142.41 23.996C145.208 23.996 145.741 21.457 145.741 19.71C145.741 17.963 145.208 15.424 142.41 15.424C139.611 15.424 139.079 17.963 139.079 19.71C139.078 21.457 139.613 23.996 142.41 23.996Z" fill="#A4ACC6"></path>
    <path d="M158.364 14.0498C163.006 14.0498 163.83 17.2518 163.83 19.6778C163.83 24.8048 160.239 25.3698 157.959 25.3698H153.867V14.0498H158.364ZM155.938 23.6558H157.862C158.866 23.6558 161.615 23.4938 161.615 19.7108C161.615 16.2168 159.432 15.7648 158.186 15.7648H155.938V23.6558Z" fill="#A4ACC6"></path>
    <path d="M177.57 18.7068V20.4218H171.812V23.6558H178.411V25.3708H169.742V14.0498H178.232V15.7648H171.812V18.7078L177.57 18.7068Z" fill="#A4ACC6"></path>
    <path d="M199.038 25.3708H191.453V14.0498H193.522V23.6558H199.038V25.3708Z" fill="#A4ACC6"></path>
    <path d="M205.583 25.3708H203.367L207.637 14.0498H209.707L213.977 25.3708H211.762L210.938 22.9938H206.411L205.583 25.3708ZM210.387 21.2788L208.671 16.2488L206.956 21.2788H210.387Z" fill="#A4ACC6"></path>
    <path d="M224.434 14.0498C227.313 14.0498 227.878 15.6678 227.878 16.9118C227.878 18.1578 227.102 19.1438 226.002 19.3378V19.3698C226.94 19.5318 228.348 20.1778 228.348 22.1998C228.348 25.0618 225.905 25.3688 224.207 25.3688H219.098V14.0498H224.434ZM221.167 18.6428H223.9C225.048 18.6428 225.744 18.2868 225.744 17.2998C225.744 15.7968 224.289 15.7628 223.851 15.7628H221.166V18.6428H221.167ZM221.167 23.6558H223.997C225.259 23.6558 226.213 23.3488 226.213 21.9738C226.213 20.4528 224.904 20.3548 224.046 20.3548H221.167V23.6558Z" fill="#A4ACC6"></path>
  </symbol>
  <symbol fill="none" xmlns="http://www.w3.org/2000/svg" viewBox="0 0 43 32" id="quote">
    <path fill-rule="evenodd" clip-rule="evenodd" d="M17.4474 2.09607C14.4466 4.26978 12.249 6.10188 10.8547 7.59243C8.49039 10.0767 7.30826 12.4522 7.30826 14.7191C7.30826 15.2159 7.44466 15.6817 7.71747 16.1164C7.99027 16.5512 8.47525 16.7686 9.17242 16.7686C9.44522 16.7686 9.82411 16.7297 10.3091 16.6521C10.7941 16.5745 11.1275 16.5357 11.3094 16.5357C13.0978 16.5357 14.6739 17.1878 16.038 18.492C17.402 19.7962 18.084 21.6128 18.084 23.9418C18.084 26.395 17.3868 28.3513 15.9925 29.8108C14.5982 31.2703 12.7189 32 10.3546 32C7.68714 32 5.45169 31.0141 3.64816 29.0422C1.84461 27.0703 0.942856 24.3144 0.942856 20.7744C0.942856 15.6817 3.01917 11.0083 7.17186 6.754C9.44523 4.45608 12.5067 2.20477 16.3562 0L17.4474 2.09607ZM42.3635 2.09607C39.5445 4.08346 37.4227 5.82241 35.9981 7.31296C33.4822 9.89036 32.2243 12.328 32.2243 14.6259C32.2243 15.278 32.3758 15.8059 32.6789 16.2096C33.0124 16.5822 33.467 16.7686 34.043 16.7686C34.2855 16.7686 34.6568 16.7297 35.1569 16.6521C35.6571 16.5745 35.9981 16.5357 36.1799 16.5357C37.9986 16.5357 39.59 17.1878 40.954 18.492C42.318 19.7962 43 21.6749 43 24.1281C43 26.2397 42.3407 28.0796 41.0222 29.6477C39.7036 31.2159 37.8168 32 35.3615 32C32.7244 32 30.4814 31.0451 28.6324 29.1354C26.7834 27.2256 25.8589 24.4852 25.8589 20.9141C25.8589 15.7904 27.8746 11.1325 31.906 6.94032C34.1794 4.61134 37.3014 2.29792 41.2722 0L42.3635 2.09607Z" fill="#4862B1"></path>
  </symbol>
  <symbol fill="none" xmlns="http://www.w3.org/2000/svg" viewBox="0 0 32 32" id="social-fb">
    <path fill-rule="evenodd" clip-rule="evenodd" d="M16.0125 32C24.8557 32 32.025 24.8373 32.025 16C32.025 7.16463 24.8557 0 16.0125 0C7.16929 0 0 7.16463 0 16C0 24.8373 7.16929 32 16.0125 32Z" fill="#8AC249"></path>
    <path fill-rule="evenodd" clip-rule="evenodd" d="M12.1504 13.2911H13.8055V11.6834C13.8055 10.9751 13.8234 9.88098 14.3393 9.20459C14.8816 8.48775 15.6273 7.99951 16.9087 7.99951C18.9969 7.99951 19.8762 8.29772 19.8762 8.29772L19.4629 10.7483C19.4629 10.7483 18.7728 10.5489 18.1288 10.5489C17.4848 10.5489 16.9087 10.7794 16.9087 11.4228V13.2911H19.5486L19.365 15.6844H16.9087V24.0005H13.8055V15.6844H12.1504V13.2911Z" fill="white"></path>
  </symbol>
  <symbol xmlns="http://www.w3.org/2000/svg" viewBox="0 0 32 32" id="social-git">
    <g>
      <title>background</title>
      <circle cx="15" cy="15" r="14" fill="#fff" id="canvas_background" y="-1" x="-1"></circle>
    </g>
    <g>
      <title>Layer 1</title>
      <path stroke="null" id="svg_1" fill-rule="evenodd" clip-rule="evenodd" fill="#8AC249" d="m9.576991,16.294138c-0.028738,0 0.315054,0.720032 0.324633,0.720032c0.750381,1.325238 2.19686,2.149035 4.636929,2.377634c-0.348049,0.257041 -0.766347,0.744788 -0.824355,1.308383c-0.437988,0.275477 -1.318755,0.3666 -2.003145,0.156437c-0.95953,-0.294439 -1.326738,-2.141661 -2.763105,-1.878299c-0.310796,0.05636 -0.249063,0.255988 0.019691,0.42612c0.437988,0.275477 0.8499,0.620481 1.167614,1.354208c0.244273,0.563595 0.757299,1.570165 2.380464,1.570165c0.643944,0 1.095237,-0.075322 1.095237,-0.075322s0.01224,1.438484 0.01224,1.997865c0,0.645237 -0.895135,0.826957 -0.895135,1.137198c0,0.122727 0.296427,0.134315 0.534314,0.134315c0.470452,0 1.44914,-0.381875 1.44914,-1.052395c0,-0.532518 0.009047,-2.322854 0.009047,-2.636782c0,-0.684742 0.377319,-0.901752 0.377319,-0.901752s0.046832,3.655467 -0.089939,4.146374c-0.16072,0.576236 -0.450761,0.494594 -0.450761,0.751636c0,0.382402 1.178258,0.094284 1.568882,-0.745842c0.301749,-0.652611 0.169767,-4.240131 0.169767,-4.240131l0.321972,-0.006321c0,0 0.018094,1.6418 0.006918,2.392382c-0.011176,0.777445 -0.065459,1.760313 0.40925,2.22383c0.31186,0.304973 1.321948,0.839599 1.321948,0.350798c0,-0.283904 -0.553473,-0.517243 -0.553473,-1.285734l0,-3.536954c0.442246,0 0.375723,1.163007 0.375723,1.163007l0.032463,2.16115c0,0 -0.097922,0.786926 0.875445,1.116129c0.343259,0.11746 1.077675,0.149063 1.112267,-0.047405c0.034592,-0.196468 -0.884492,-0.4888 -0.893007,-1.097693c-0.005322,-0.372394 0.01703,-0.589404 0.01703,-2.205395c0,-1.61599 -0.222986,-2.213296 -1.000508,-2.689454c2.399091,-0.23966 3.884419,-0.816949 4.607659,-2.362885c0.056412,0.00158 0.295363,-0.722139 0.263964,-0.722139c0.162316,-0.583611 0.250127,-1.274146 0.267157,-2.091622c-0.004257,-2.217509 -1.095237,-3.001802 -1.304386,-3.369982c0.308667,-1.67867 -0.052154,-2.442421 -0.21926,-2.704729c-0.618399,-0.21385 -2.15056,0.550427 -2.98822,1.088739c-1.364523,-0.388196 -4.25003,-0.350798 -5.331963,0.100078c-1.996226,-1.390025 -3.052614,-1.177229 -3.052614,-1.177229s-0.682794,1.18987 -0.180411,2.931221c-0.656716,0.814316 -1.146327,1.390552 -1.146327,2.917526c0.000532,0.860668 0.10484,1.630738 0.339534,2.302839zm6.62943,15.50255c-8.817243,0 -15.965554,-7.074961 -15.965554,-15.801729c0,-8.727295 7.148311,-15.801729 15.965554,-15.801729s15.965554,7.074434 15.965554,15.801729c0,8.726768 -7.148311,15.801729 -15.965554,15.801729z"></path>
    </g>
  </symbol>
  <symbol version="1.1" id="social-in" xmlns="http://www.w3.org/2000/svg" xmlns:xlink="http://www.w3.org/1999/xlink" x="0px" y="0px" xml:space="preserve" viewBox="0 0 48 48">
    <path d="M24,0C10.7,0,0,10.7,0,24s10.7,24,24,24s24-10.7,24-24S37.3,0,24,0z"></path>
    <g>
      <rect x="11.6" y="18.7" width="5.4" height="16.3"></rect>
      <path d="M17.4,13.6c0-1.6-1.2-2.8-3-2.8c-1.9,0-3.1,1.2-3.1,2.8c0,1.6,1.2,2.8,3,2.8h0C16.2,16.5,17.4,15.2,17.4,13.6z
		"></path>
      <path d="M30.4,18.3c3.6,0,6.3,2.3,6.3,7.4l0,9.4h-5.4v-8.7c0-2.2-0.8-3.7-2.8-3.7c-1.5,0-2.4,1-2.8,2
		c-0.1,0.3-0.2,0.8-0.2,1.3V35h-5.4c0,0,0.1-14.8,0-16.3h5.4V21C26.2,19.9,27.5,18.3,30.4,18.3z"></path>
    </g>
  </symbol>
  <symbol enable-background="new 0 0 512 512" id="social-medium" version="1.1" xml:space="preserve" xmlns="http://www.w3.org/2000/svg" xmlns:xlink="http://www.w3.org/1999/xlink" viewBox="0 0 512 512">
    <circle cx="256" cy="256" fill="#8AC249" id="ellipse" r="256"></circle>
    <path d="M202.6,171.2v209.5c0,3-0.7,5.5-2.2,7.6c-1.5,2.1-3.7,3.1-6.5,3.1c-2,0-4-0.5-5.9-1.4l-83-41.6  c-2.5-1.2-4.6-3.2-6.3-6S96,336.8,96,334V130.5c0-2.4,0.6-4.4,1.8-6.1c1.2-1.7,2.9-2.5,5.2-2.5c1.7,0,4.3,0.9,7.9,2.7l91.3,45.7  C202.4,170.6,202.6,170.9,202.6,171.2z M214,189.2l95.4,154.6L214,296.4V189.2z M416,192.4v188.2c0,3-0.8,5.4-2.5,7.2  s-3.9,2.8-6.8,2.8s-5.7-0.8-8.4-2.3L319.6,349L416,192.4z M415.5,171c0,0.4-15.3,25.3-45.8,74.9S321.2,324.5,316,333l-69.6-113.2  l57.9-94.1c2-3.3,5.1-5,9.3-5c1.7,0,3.2,0.4,4.6,1.1l96.6,48.2C415.2,170.2,415.5,170.5,415.5,171z" fill="#FFFFFF" id="logo"></path>
  </symbol>
  <symbol fill="none" xmlns="http://www.w3.org/2000/svg" viewBox="0 0 32 32" id="social-tweet">
    <path fill-rule="evenodd" clip-rule="evenodd" d="M16.0125 0C24.8559 0 32.0249 7.16343 32.0249 16C32.0249 24.8366 24.8559 32 16.0125 32C7.169 32 0 24.8366 0 16C0 7.16343 7.169 0 16.0125 0Z" fill="#8AC249"></path>
    <path fill-rule="evenodd" clip-rule="evenodd" d="M24.4473 12.9424C24.6476 18.1419 20.7443 23.9421 13.9394 23.9421C11.8376 23.9421 9.93628 23.3424 8.23438 22.2425C10.2364 22.4427 12.1378 21.9426 13.739 20.7421C12.1378 20.7421 10.7369 19.6422 10.2364 18.1419C10.8366 18.2425 11.4369 18.2425 11.9374 18.0422C10.1357 17.6427 8.93527 16.0427 8.93527 14.3421C9.43577 14.642 10.036 14.7426 10.6363 14.8422C8.93527 13.7424 8.5345 11.5426 9.53551 9.84201C11.3371 12.0427 14.1389 13.5421 17.1419 13.7424C16.6414 11.442 18.3424 9.14258 20.7443 9.14258C21.845 9.14258 22.7463 9.64269 23.4463 10.3421C24.2469 10.1419 25.0475 9.84201 25.8481 9.44246C25.548 10.3421 24.9478 11.0425 24.2469 11.5426C25.0475 11.442 25.7484 11.2427 26.3486 10.9419C25.8481 11.8425 25.1482 12.4422 24.4473 12.9424Z" fill="white"></path>
  </symbol>
</svg>
