<svg width="0" height="0" class="hidden">
  <symbol fill="none" xmlns="http://www.w3.org/2000/svg" viewBox="0 0 32 32" id="facebook">
    <path fill-rule="evenodd" clip-rule="evenodd" d="M16.0125 32C24.8557 32 32.025 24.8373 32.025 16C32.025 7.16463 24.8557 0 16.0125 0C7.16929 0 0 7.16463 0 16C0 24.8373 7.16929 32 16.0125 32Z" fill="#8AC249"></path>
    <path fill-rule="evenodd" clip-rule="evenodd" d="M12.1504 13.2911H13.8055V11.6834C13.8055 10.9751 13.8234 9.88098 14.3393 9.20459C14.8816 8.48775 15.6273 7.99951 16.9087 7.99951C18.9969 7.99951 19.8762 8.29772 19.8762 8.29772L19.4629 10.7483C19.4629 10.7483 18.7728 10.5489 18.1288 10.5489C17.4848 10.5489 16.9087 10.7794 16.9087 11.4228V13.2911H19.5486L19.365 15.6844H16.9087V24.0005H13.8055V15.6844H12.1504V13.2911Z" fill="white"></path>
  </symbol>
  <symbol xmlns="http://www.w3.org/2000/svg" viewBox="0 0 32 32" id="git">
    <g>
      <title>background</title>
      <circle cx="15" cy="15" r="14" fill="#fff" id="canvas_background" y="-1" x="-1"></circle>
    </g>
    <g>
      <title>Layer 1</title>
      <path stroke="null" id="svg_1" fill-rule="evenodd" clip-rule="evenodd" fill="#8AC249" d="m9.576991,16.294138c-0.028738,0 0.315054,0.720032 0.324633,0.720032c0.750381,1.325238 2.19686,2.149035 4.636929,2.377634c-0.348049,0.257041 -0.766347,0.744788 -0.824355,1.308383c-0.437988,0.275477 -1.318755,0.3666 -2.003145,0.156437c-0.95953,-0.294439 -1.326738,-2.141661 -2.763105,-1.878299c-0.310796,0.05636 -0.249063,0.255988 0.019691,0.42612c0.437988,0.275477 0.8499,0.620481 1.167614,1.354208c0.244273,0.563595 0.757299,1.570165 2.380464,1.570165c0.643944,0 1.095237,-0.075322 1.095237,-0.075322s0.01224,1.438484 0.01224,1.997865c0,0.645237 -0.895135,0.826957 -0.895135,1.137198c0,0.122727 0.296427,0.134315 0.534314,0.134315c0.470452,0 1.44914,-0.381875 1.44914,-1.052395c0,-0.532518 0.009047,-2.322854 0.009047,-2.636782c0,-0.684742 0.377319,-0.901752 0.377319,-0.901752s0.046832,3.655467 -0.089939,4.146374c-0.16072,0.576236 -0.450761,0.494594 -0.450761,0.751636c0,0.382402 1.178258,0.094284 1.568882,-0.745842c0.301749,-0.652611 0.169767,-4.240131 0.169767,-4.240131l0.321972,-0.006321c0,0 0.018094,1.6418 0.006918,2.392382c-0.011176,0.777445 -0.065459,1.760313 0.40925,2.22383c0.31186,0.304973 1.321948,0.839599 1.321948,0.350798c0,-0.283904 -0.553473,-0.517243 -0.553473,-1.285734l0,-3.536954c0.442246,0 0.375723,1.163007 0.375723,1.163007l0.032463,2.16115c0,0 -0.097922,0.786926 0.875445,1.116129c0.343259,0.11746 1.077675,0.149063 1.112267,-0.047405c0.034592,-0.196468 -0.884492,-0.4888 -0.893007,-1.097693c-0.005322,-0.372394 0.01703,-0.589404 0.01703,-2.205395c0,-1.61599 -0.222986,-2.213296 -1.000508,-2.689454c2.399091,-0.23966 3.884419,-0.816949 4.607659,-2.362885c0.056412,0.00158 0.295363,-0.722139 0.263964,-0.722139c0.162316,-0.583611 0.250127,-1.274146 0.267157,-2.091622c-0.004257,-2.217509 -1.095237,-3.001802 -1.304386,-3.369982c0.308667,-1.67867 -0.052154,-2.442421 -0.21926,-2.704729c-0.618399,-0.21385 -2.15056,0.550427 -2.98822,1.088739c-1.364523,-0.388196 -4.25003,-0.350798 -5.331963,0.100078c-1.996226,-1.390025 -3.052614,-1.177229 -3.052614,-1.177229s-0.682794,1.18987 -0.180411,2.931221c-0.656716,0.814316 -1.146327,1.390552 -1.146327,2.917526c0.000532,0.860668 0.10484,1.630738 0.339534,2.302839zm6.62943,15.50255c-8.817243,0 -15.965554,-7.074961 -15.965554,-15.801729c0,-8.727295 7.148311,-15.801729 15.965554,-15.801729s15.965554,7.074434 15.965554,15.801729c0,8.726768 -7.148311,15.801729 -15.965554,15.801729z"></path>
    </g>
  </symbol>
  <symbol version="1.1" id="linkedin" xmlns="http://www.w3.org/2000/svg" xmlns:xlink="http://www.w3.org/1999/xlink" x="0px" y="0px" xml:space="preserve" viewBox="0 0 48 48">
    <path d="M24,0C10.7,0,0,10.7,0,24s10.7,24,24,24s24-10.7,24-24S37.3,0,24,0z" fill='#8AC249'></path>
    <g>
      <rect x="11.6" y="18.7" width="5.4" height="16.3" fill="white"></rect>
      <path d="M17.4,13.6c0-1.6-1.2-2.8-3-2.8c-1.9,0-3.1,1.2-3.1,2.8c0,1.6,1.2,2.8,3,2.8h0C16.2,16.5,17.4,15.2,17.4,13.6z
		" fill="white"></path>
      <path d="M30.4,18.3c3.6,0,6.3,2.3,6.3,7.4l0,9.4h-5.4v-8.7c0-2.2-0.8-3.7-2.8-3.7c-1.5,0-2.4,1-2.8,2
		c-0.1,0.3-0.2,0.8-0.2,1.3V35h-5.4c0,0,0.1-14.8,0-16.3h5.4V21C26.2,19.9,27.5,18.3,30.4,18.3z" fill="white"></path>
    </g>
  </symbol>
  <symbol id="medium" version="1.1" xml:space="preserve" xmlns="http://www.w3.org/2000/svg" xmlns:xlink="http://www.w3.org/1999/xlink" viewBox="0 0 512 512">
    <circle cx="256" cy="256" fill="#8AC249" id="ellipse" r="256"></circle>
    <path d="M202.6,171.2v209.5c0,3-0.7,5.5-2.2,7.6c-1.5,2.1-3.7,3.1-6.5,3.1c-2,0-4-0.5-5.9-1.4l-83-41.6  c-2.5-1.2-4.6-3.2-6.3-6S96,336.8,96,334V130.5c0-2.4,0.6-4.4,1.8-6.1c1.2-1.7,2.9-2.5,5.2-2.5c1.7,0,4.3,0.9,7.9,2.7l91.3,45.7  C202.4,170.6,202.6,170.9,202.6,171.2z M214,189.2l95.4,154.6L214,296.4V189.2z M416,192.4v188.2c0,3-0.8,5.4-2.5,7.2  s-3.9,2.8-6.8,2.8s-5.7-0.8-8.4-2.3L319.6,349L416,192.4z M415.5,171c0,0.4-15.3,25.3-45.8,74.9S321.2,324.5,316,333l-69.6-113.2  l57.9-94.1c2-3.3,5.1-5,9.3-5c1.7,0,3.2,0.4,4.6,1.1l96.6,48.2C415.2,170.2,415.5,170.5,415.5,171z" fill="#FFFFFF" id="logo"></path>
  </symbol>
  <symbol fill="none" xmlns="http://www.w3.org/2000/svg" viewBox="0 0 32 32" id="tweeter">
    <path fill-rule="evenodd" clip-rule="evenodd" d="M16.0125 0C24.8559 0 32.0249 7.16343 32.0249 16C32.0249 24.8366 24.8559 32 16.0125 32C7.169 32 0 24.8366 0 16C0 7.16343 7.169 0 16.0125 0Z" fill="#8AC249"></path>
    <path fill-rule="evenodd" clip-rule="evenodd" d="M24.4473 12.9424C24.6476 18.1419 20.7443 23.9421 13.9394 23.9421C11.8376 23.9421 9.93628 23.3424 8.23438 22.2425C10.2364 22.4427 12.1378 21.9426 13.739 20.7421C12.1378 20.7421 10.7369 19.6422 10.2364 18.1419C10.8366 18.2425 11.4369 18.2425 11.9374 18.0422C10.1357 17.6427 8.93527 16.0427 8.93527 14.3421C9.43577 14.642 10.036 14.7426 10.6363 14.8422C8.93527 13.7424 8.5345 11.5426 9.53551 9.84201C11.3371 12.0427 14.1389 13.5421 17.1419 13.7424C16.6414 11.442 18.3424 9.14258 20.7443 9.14258C21.845 9.14258 22.7463 9.64269 23.4463 10.3421C24.2469 10.1419 25.0475 9.84201 25.8481 9.44246C25.548 10.3421 24.9478 11.0425 24.2469 11.5426C25.0475 11.442 25.7484 11.2427 26.3486 10.9419C25.8481 11.8425 25.1482 12.4422 24.4473 12.9424Z" fill="white"></path>
  </symbol>
</svg>
